<mxfile host="app.diagrams.net" modified="2021-05-05T18:48:29.381Z" agent="5.0 (X11)" etag="l9gnbLYmF0wBVh1BANsv" version="14.6.10" type="github">
  <diagram id="9W7urJ0I5jUyCAketgAI" name="Page-1">
    <mxGraphModel dx="864" dy="475" grid="1" gridSize="14" guides="1" tooltips="1" connect="1" arrows="1" fold="1" page="1" pageScale="1" pageWidth="800" pageHeight="200" background="none" math="0" shadow="1">
      <root>
        <mxCell id="0" />
        <mxCell id="1" parent="0" />
        <mxCell id="Fa_r9oPxY7IImkRRW9Fn-1" value="" style="whiteSpace=wrap;html=1;aspect=fixed;fillColor=#ffe6cc;strokeColor=#d79b00;gradientColor=#ffffff;" vertex="1" parent="1">
          <mxGeometry x="156" y="48" width="300" height="300" as="geometry" />
        </mxCell>
        <mxCell id="Fa_r9oPxY7IImkRRW9Fn-2" value="&lt;div&gt;Command Line Environment&lt;/div&gt;" style="rounded=0;whiteSpace=wrap;html=1;" vertex="1" parent="1">
          <mxGeometry x="204" y="68" width="206" height="30" as="geometry" />
        </mxCell>
        <mxCell id="Fa_r9oPxY7IImkRRW9Fn-3" value="" style="whiteSpace=wrap;html=1;aspect=fixed;fillColor=#fff2cc;strokeColor=#d6b656;gradientColor=#ffffff;" vertex="1" parent="1">
          <mxGeometry x="237" y="148" width="140" height="140" as="geometry" />
        </mxCell>
        <mxCell id="Fa_r9oPxY7IImkRRW9Fn-4" value="Jest" style="rounded=0;whiteSpace=wrap;html=1;gradientColor=#ffffff;" vertex="1" parent="1">
          <mxGeometry x="266" y="158" width="80" height="20" as="geometry" />
        </mxCell>
        <mxCell id="Fa_r9oPxY7IImkRRW9Fn-5" value="" style="whiteSpace=wrap;html=1;aspect=fixed;fillColor=#dae8fc;strokeColor=#6c8ebf;gradientColor=#ffffff;" vertex="1" parent="1">
          <mxGeometry x="271" y="208" width="70" height="70" as="geometry" />
        </mxCell>
        <mxCell id="Fa_r9oPxY7IImkRRW9Fn-6" value="JSDOM" style="rounded=0;whiteSpace=wrap;html=1;gradientColor=#ffffff;" vertex="1" parent="1">
          <mxGeometry x="280.75" y="218" width="52.5" height="20" as="geometry" />
        </mxCell>
        <mxCell id="Fa_r9oPxY7IImkRRW9Fn-10" style="edgeStyle=orthogonalEdgeStyle;rounded=0;orthogonalLoop=1;jettySize=auto;html=1;entryX=1;entryY=0.25;entryDx=0;entryDy=0;" edge="1" parent="1" source="Fa_r9oPxY7IImkRRW9Fn-7" target="Fa_r9oPxY7IImkRRW9Fn-5">
          <mxGeometry relative="1" as="geometry">
            <mxPoint x="486" y="198" as="targetPoint" />
            <Array as="points">
              <mxPoint x="444" y="318" />
              <mxPoint x="444" y="226" />
            </Array>
          </mxGeometry>
        </mxCell>
        <mxCell id="Fa_r9oPxY7IImkRRW9Fn-7" value="Simulate how a broser behaves" style="rounded=1;whiteSpace=wrap;html=1;fillColor=#d5e8d4;strokeColor=#82b366;" vertex="1" parent="1">
          <mxGeometry x="536" y="288" width="120" height="60" as="geometry" />
        </mxCell>
      </root>
    </mxGraphModel>
  </diagram>
</mxfile>
